<svg width="40" height="40" viewBox="0 0 40 40" fill="none" xmlns="http://www.w3.org/2000/svg">
    <defs>
        <linearGradient id="gradient1" x1="0%" y1="0%" x2="100%" y2="100%">
            <stop offset="0%" style="stop-color:#FFB9A0;stop-opacity:1" />
            <stop offset="50%" style="stop-color:#FEAA8C;stop-opacity:1" />
            <stop offset="100%" style="stop-color:#FE9166;stop-opacity:1" />
        </linearGradient>
        <linearGradient id="gradient2" x1="100%" y1="0%" x2="0%" y2="100%">
            <stop offset="0%" style="stop-color:#FE875C;stop-opacity:1" />
            <stop offset="100%" style="stop-color:#FEAA8C;stop-opacity:1" />
        </linearGradient>
        <linearGradient id="gradient3" x1="50%" y1="0%" x2="50%" y2="100%">
            <stop offset="0%" style="stop-color:#FFC8B4;stop-opacity:1" />
            <stop offset="100%" style="stop-color:#FE9166;stop-opacity:1" />
        </linearGradient>
    </defs>
    <path d="M20.2206 40C20.1765 40 20.1358 40 20.0917 40C14.7567 39.9661 9.73039 37.8574 5.93518 34.0577C2.14336 30.2581 0.0337812 25.2224 -0.000134827 19.8846C-0.0340509 14.5399 2.01448 9.52803 5.7656 5.77251C9.51672 2.01699 14.5261 -0.0373392 19.8611 1.22396e-05C25.1961 0.0339681 30.2225 2.14263 34.0177 5.94229C37.8129 9.74195 39.9191 14.7742 39.953 20.1155C39.9869 25.4601 37.9384 30.472 34.1873 34.2275C30.4667 37.9525 25.5115 40 20.2206 40ZM19.7322 1.63329C14.8788 1.63329 10.3341 3.51105 6.92214 6.92701C3.48305 10.3701 1.6041 14.9678 1.63462 19.871C1.66514 24.7776 3.60514 29.4058 7.09172 32.8964C10.5817 36.3905 15.201 38.3294 20.1019 38.3599C20.1426 38.3599 20.1799 38.3599 20.2206 38.3599C25.074 38.3599 29.6188 36.4822 33.0307 33.0662C36.4698 29.6231 38.3488 25.0255 38.3182 20.1223C38.2877 15.2156 36.3477 10.5874 32.8611 7.09679C29.3712 3.60273 24.7518 1.66385 19.8509 1.63329C19.8102 1.63329 19.7729 1.63329 19.7322 1.63329Z" fill="url(#gradient1)"/>
    <path d="M17.209 38.7474C17.1751 38.7474 17.1412 38.7474 17.1073 38.7474C12.8983 38.7202 8.93009 37.0564 5.9353 34.0581C2.94052 31.0597 1.27863 27.0869 1.2515 22.873C1.22436 18.6557 2.84216 14.6964 5.80303 11.7321C11.9147 5.61323 21.9166 5.67435 28.1028 11.8645C31.0942 14.8594 32.7561 18.8255 32.7867 23.0326C32.8172 27.2567 31.2028 31.2193 28.2351 34.1905C25.298 37.1311 21.3841 38.7474 17.209 38.7474ZM16.8291 8.81527C13.2408 8.81527 9.66946 10.1701 6.95618 12.8866C4.30394 15.5419 2.85912 19.0835 2.88286 22.8594C2.9066 26.6421 4.4023 30.2075 7.08845 32.9002C9.77799 35.5929 13.3392 37.0869 17.1174 37.1107C20.8855 37.1378 24.4297 35.6845 27.0786 33.0326C29.7342 30.3738 31.179 26.8255 31.1519 23.0428C31.1248 19.2669 29.6291 15.7083 26.9463 13.019C24.1482 10.2176 20.4785 8.81527 16.8291 8.81527Z" fill="url(#gradient2)"/>
    <path d="M27.455 22.1156C25.0063 22.1156 22.5508 21.175 20.6752 19.3007C16.9546 15.5757 16.9207 9.54855 20.5972 5.86774C22.3812 4.08166 24.7519 3.11392 27.2956 3.1241C29.8291 3.14108 32.2134 4.14278 34.0144 5.94583C35.8153 7.74889 36.8159 10.1394 36.8328 12.6725C36.8498 15.2124 35.8764 17.5927 34.0924 19.3788C32.2677 21.2056 29.8664 22.119 27.455 22.119V22.1156ZM27.2346 4.75738C25.1589 4.75738 23.2121 5.56213 21.7537 7.02224C18.7115 10.0681 18.7454 15.0562 21.8317 18.1428C24.9147 21.2294 29.9004 21.2667 32.9392 18.2209C34.4112 16.7472 35.215 14.7811 35.2014 12.6827C35.1879 10.5808 34.3569 8.59779 32.8612 7.10033C31.3655 5.60288 29.3848 4.77096 27.2854 4.75738C27.2685 4.75738 27.2515 4.75738 27.2346 4.75738Z" fill="url(#gradient3)"/>
</svg>
