<?xml version="1.0" encoding="UTF-8"?>
<svg id="Layer_1" xmlns="http://www.w3.org/2000/svg" version="1.1" viewBox="0 0 841.89 595.28">
  <!-- Generator: Adobe Illustrator 29.6.1, SVG Export Plug-In . SVG Version: 2.1.1 Build 9)  -->
  <defs>
    <style>
      .st0 {
        font-size: 10px;
      }

      .st0, .st1, .st2 {
        fill: #ef8563;
      }

      .st0, .st1, .st3 {
        font-family: Amandine-BoldItalic, Amandine;
        font-style: italic;
        font-weight: 700;
      }

      .st4 {
        fill: #f8f6f1;
      }

      .st1 {
        font-size: 28px;
      }

      .st3 {
        fill: #fff;
        font-size: 13px;
        letter-spacing: .05em;
      }

      .st5 {
        stroke-miterlimit: 10;
      }

      .st5, .st6 {
        fill: none;
        stroke: #ef8563;
      }

      .st6 {
        stroke-linejoin: round;
      }
    </style>
  </defs>
  <rect class="st4" x="-4.47" y="-10.56" width="849.74" height="605.94"/>
  <path class="st2" d="M28.36,128.49h33.45c8.16,0,14.79,6.63,14.79,14.79v8.83H13.57v-8.83c0-8.16,6.63-14.79,14.79-14.79Z" transform="translate(-95.22 185.38) rotate(-90)"/>
  <path class="st2" d="M72.47,85.2h118.93c8.41,0,15.23,6.82,15.23,15.23v8.39H57.24v-8.39c0-8.41,6.82-15.23,15.23-15.23Z"/>
  <path class="st2" d="M222.97,85.2h118.93c8.41,0,15.23,6.82,15.23,15.23v8.39h-149.39v-8.39c0-8.41,6.82-15.23,15.23-15.23Z"/>
  <path class="st2" d="M373.46,85.2h118.93c8.41,0,15.23,6.82,15.23,15.23v8.39h-149.39v-8.39c0-8.41,6.82-15.23,15.23-15.23Z"/>
  <path class="st2" d="M523.96,85.2h118.93c8.41,0,15.23,6.82,15.23,15.23v8.39h-149.39v-8.39c0-8.41,6.82-15.23,15.23-15.23Z"/>
  <path class="st2" d="M674.45,85.2h118.93c8.41,0,15.23,6.82,15.23,15.23v8.39h-149.39v-8.39c0-8.41,6.82-15.23,15.23-15.23Z"/>
  <g>
    <line class="st5" x1="57.25" y1="108.82" x2="57.25" y2="171.82"/>
    <line class="st6" x1="207.46" y1="114.55" x2="207.46" y2="165.91"/>
    <line class="st6" x1="357.68" y1="114.55" x2="357.68" y2="165.91"/>
    <line class="st6" x1="507.89" y1="114.55" x2="507.89" y2="165.91"/>
    <line class="st6" x1="658.11" y1="114.55" x2="658.11" y2="165.91"/>
    <line class="st5" x1="808.33" y1="108.82" x2="808.33" y2="170.73"/>
    <line class="st5" x1="56.95" y1="109.27" x2="808.32" y2="109.27"/>
    <line class="st5" x1="56.95" y1="171.51" x2="808.32" y2="171.51"/>
  </g>
  <text class="st3" transform="translate(105.13 103.96)"><tspan x="0" y="0">Feelings</tspan></text>
  <text class="st3" transform="translate(230.22 104.37)"><tspan x="0" y="0">Body Sensations</tspan></text>
  <text class="st3" transform="translate(401.68 103.53)"><tspan x="0" y="0">Thoughts</tspan></text>
  <text class="st3" transform="translate(554.19 103.56)"><tspan x="0" y="0">Impulses</tspan></text>
  <text class="st3" transform="translate(716.17 103.25)"><tspan x="0" y="0">Need</tspan></text>
  <g>
    <path class="st2" d="M28.36,196.93h33.45c8.16,0,14.79,6.63,14.79,14.79v8.83H13.57v-8.83c0-8.16,6.63-14.79,14.79-14.79Z" transform="translate(-163.65 253.82) rotate(-90)"/>
    <g>
      <line class="st5" x1="57.25" y1="177.26" x2="57.25" y2="240.26"/>
      <line class="st6" x1="207.46" y1="182.99" x2="207.46" y2="234.35"/>
      <line class="st6" x1="357.68" y1="182.99" x2="357.68" y2="234.35"/>
      <line class="st6" x1="507.89" y1="182.99" x2="507.89" y2="234.35"/>
      <line class="st6" x1="658.11" y1="182.99" x2="658.11" y2="234.35"/>
      <line class="st5" x1="808.33" y1="177.26" x2="808.33" y2="239.17"/>
      <line class="st5" x1="56.95" y1="177.71" x2="808.32" y2="177.71"/>
      <line class="st5" x1="56.95" y1="239.95" x2="808.32" y2="239.95"/>
    </g>
  </g>
  <g>
    <path class="st2" d="M28.36,265.22h33.45c8.16,0,14.79,6.63,14.79,14.79v8.83H13.57v-8.83c0-8.16,6.63-14.79,14.79-14.79Z" transform="translate(-231.95 322.11) rotate(-90)"/>
    <g>
      <line class="st5" x1="57.25" y1="245.55" x2="57.25" y2="308.55"/>
      <line class="st6" x1="207.46" y1="251.28" x2="207.46" y2="302.64"/>
      <line class="st6" x1="357.68" y1="251.28" x2="357.68" y2="302.64"/>
      <line class="st6" x1="507.89" y1="251.28" x2="507.89" y2="302.64"/>
      <line class="st6" x1="658.11" y1="251.28" x2="658.11" y2="302.64"/>
      <line class="st5" x1="808.33" y1="245.55" x2="808.33" y2="307.46"/>
      <line class="st5" x1="56.95" y1="246" x2="808.32" y2="246"/>
      <line class="st5" x1="56.95" y1="308.24" x2="808.32" y2="308.24"/>
    </g>
  </g>
  <g>
    <path class="st2" d="M28.36,333.51h33.45c8.16,0,14.79,6.63,14.79,14.79v8.83H13.57v-8.83c0-8.16,6.63-14.79,14.79-14.79Z" transform="translate(-300.24 390.41) rotate(-90)"/>
    <g>
      <line class="st5" x1="57.25" y1="313.84" x2="57.25" y2="376.84"/>
      <line class="st6" x1="207.46" y1="319.57" x2="207.46" y2="370.94"/>
      <line class="st6" x1="357.68" y1="319.57" x2="357.68" y2="370.94"/>
      <line class="st6" x1="507.89" y1="319.57" x2="507.89" y2="370.94"/>
      <line class="st6" x1="658.11" y1="319.57" x2="658.11" y2="370.94"/>
      <line class="st5" x1="808.33" y1="313.84" x2="808.33" y2="375.75"/>
      <line class="st5" x1="56.95" y1="314.3" x2="808.32" y2="314.3"/>
      <line class="st5" x1="56.95" y1="376.53" x2="808.32" y2="376.53"/>
    </g>
  </g>
  <g>
    <path class="st2" d="M28.36,401.81h33.45c8.16,0,14.79,6.63,14.79,14.79v8.83H13.57v-8.83c0-8.16,6.63-14.79,14.79-14.79Z" transform="translate(-368.53 458.7) rotate(-90)"/>
    <g>
      <line class="st5" x1="57.25" y1="382.13" x2="57.25" y2="445.13"/>
      <line class="st6" x1="207.46" y1="387.87" x2="207.46" y2="439.23"/>
      <line class="st6" x1="357.68" y1="387.87" x2="357.68" y2="439.23"/>
      <line class="st6" x1="507.89" y1="387.87" x2="507.89" y2="439.23"/>
      <line class="st6" x1="658.11" y1="387.87" x2="658.11" y2="439.23"/>
      <line class="st5" x1="808.33" y1="382.13" x2="808.33" y2="444.04"/>
      <line class="st5" x1="56.95" y1="382.59" x2="808.32" y2="382.59"/>
      <line class="st5" x1="56.95" y1="444.83" x2="808.32" y2="444.83"/>
    </g>
  </g>
  <g>
    <path class="st2" d="M28.36,470.1h33.45c8.16,0,14.79,6.63,14.79,14.79v8.83H13.57v-8.83c0-8.16,6.63-14.79,14.79-14.79Z" transform="translate(-436.83 526.99) rotate(-90)"/>
    <g>
      <line class="st5" x1="57.25" y1="450.43" x2="57.25" y2="513.43"/>
      <line class="st6" x1="207.46" y1="456.16" x2="207.46" y2="507.52"/>
      <line class="st6" x1="357.68" y1="456.16" x2="357.68" y2="507.52"/>
      <line class="st6" x1="507.89" y1="456.16" x2="507.89" y2="507.52"/>
      <line class="st6" x1="658.11" y1="456.16" x2="658.11" y2="507.52"/>
      <line class="st5" x1="808.33" y1="450.43" x2="808.33" y2="512.34"/>
      <line class="st5" x1="56.95" y1="450.88" x2="808.32" y2="450.88"/>
      <line class="st5" x1="56.95" y1="513.12" x2="808.32" y2="513.12"/>
    </g>
  </g>
  <g>
    <path class="st2" d="M28.36,538.39h33.45c8.16,0,14.79,6.63,14.79,14.79v8.83H13.57v-8.83c0-8.16,6.63-14.79,14.79-14.79Z" transform="translate(-505.12 595.28) rotate(-90)"/>
    <g>
      <line class="st5" x1="57.25" y1="518.72" x2="57.25" y2="581.72"/>
      <line class="st6" x1="207.46" y1="524.45" x2="207.46" y2="575.81"/>
      <line class="st6" x1="357.68" y1="524.45" x2="357.68" y2="575.81"/>
      <line class="st6" x1="507.89" y1="524.45" x2="507.89" y2="575.81"/>
      <line class="st6" x1="658.11" y1="524.45" x2="658.11" y2="575.81"/>
      <line class="st5" x1="808.33" y1="518.72" x2="808.33" y2="580.63"/>
      <line class="st5" x1="56.95" y1="519.17" x2="808.32" y2="519.17"/>
      <line class="st5" x1="56.95" y1="581.41" x2="808.32" y2="581.41"/>
    </g>
  </g>
  <g>
    <path class="st2" d="M39.98,28.18l-3.26-5.18h1.9l2.53,4.16h-1.08l2.53-4.16h1.86l-3.3,5.18h-1.18ZM39.77,31.43v-4.12h1.63v4.12h-1.63Z"/>
    <path class="st2" d="M49.41,31.57c-.62,0-1.19-.11-1.72-.34-.53-.22-1-.54-1.4-.94-.4-.4-.71-.86-.94-1.39-.22-.53-.34-1.1-.34-1.7s.11-1.17.34-1.7.53-.99.93-1.39c.4-.4.86-.71,1.39-.92.53-.22,1.1-.32,1.72-.32s1.2.11,1.73.32c.53.22.99.52,1.39.92.4.4.71.86.93,1.39.22.53.34,1.1.34,1.7s-.11,1.18-.34,1.7-.53.99-.92,1.39c-.39.4-.85.71-1.39.93-.53.22-1.1.33-1.71.33ZM49.39,30.05c.54,0,1.01-.12,1.41-.36.4-.24.72-.57.94-1,.22-.43.34-.93.34-1.49,0-.42-.06-.8-.19-1.14-.13-.34-.31-.64-.55-.89-.24-.25-.52-.45-.85-.58-.32-.14-.69-.2-1.1-.2-.53,0-.99.12-1.39.35-.4.24-.71.57-.94.99-.23.42-.34.92-.34,1.48,0,.42.06.81.19,1.16s.31.65.55.9c.24.25.52.44.85.58s.69.21,1.09.21Z"/>
    <path class="st2" d="M59,31.57c-.66,0-1.26-.15-1.78-.44-.52-.3-.93-.7-1.23-1.21-.3-.51-.45-1.09-.45-1.74v-5.17h1.64v5.22c0,.38.08.7.24.97s.38.48.65.63c.27.15.58.22.92.22s.65-.07.91-.22c.26-.15.47-.36.62-.63.16-.27.23-.59.23-.96v-5.23h1.64v5.18c0,.65-.15,1.23-.44,1.73-.29.51-.69.91-1.21,1.21s-1.1.44-1.76.44Z"/>
    <path class="st2" d="M64.61,31.43v-8.44h1.63v8.44h-1.63ZM65.81,27.92v-1.28h1.94c.41,0,.72-.1.94-.31.22-.2.32-.48.32-.83s-.11-.61-.32-.83c-.22-.22-.52-.33-.92-.33h-1.96v-1.33h2.11c.54,0,1.01.11,1.42.32.41.21.73.5.96.87.23.37.34.79.34,1.27s-.11.93-.34,1.29c-.23.36-.55.65-.97.86s-.9.31-1.45.31h-2.08ZM69.22,31.43l-2.8-3.65,1.51-.47,3.26,4.12h-1.98Z"/>
    <path class="st2" d="M77.96,31.43l-2.74-8.44h1.63l2.03,6.49h-.55l1.98-6.49h1.22l1.98,6.49h-.54l2.03-6.49h1.61l-2.74,8.44h-1.22l-1.99-6.48h.53l-1.99,6.48h-1.24Z"/>
    <path class="st2" d="M88.34,31.43v-8.44h1.63v8.44h-1.63ZM89.54,24.44v-1.44h4.61v1.44h-4.61ZM89.54,27.83v-1.4h4.26v1.4h-4.26ZM89.54,31.43v-1.44h4.67v1.44h-4.67Z"/>
    <path class="st2" d="M96.16,31.43v-8.44h1.63v8.44h-1.63ZM97.36,24.44v-1.44h4.61v1.44h-4.61ZM97.36,27.83v-1.4h4.26v1.4h-4.26ZM97.36,31.43v-1.44h4.67v1.44h-4.67Z"/>
    <path class="st2" d="M103.99,31.43v-8.44h1.63v8.44h-1.63ZM109.09,31.43l-3.66-4.4,3.56-4.03h2.04l-3.96,4.39v-.77l4.08,4.81h-2.06Z"/>
    <path class="st2" d="M112.63,31.43v-8.44h1.63v8.44h-1.63ZM113.83,31.43v-1.45h4.3v1.45h-4.3Z"/>
    <path class="st2" d="M121.36,28.18l-3.26-5.18h1.9l2.53,4.16h-1.08l2.53-4.16h1.86l-3.3,5.18h-1.18ZM121.16,31.43v-4.12h1.63v4.12h-1.63Z"/>
  </g>
  <text class="st1" transform="translate(179.03 66.19)"><tspan x="0" y="0">reset journal</tspan></text>
  <g>
    <line class="st5" x1="658.9" y1="66.43" x2="809.08" y2="66.43"/>
    <line class="st5" x1="658.9" y1="53.13" x2="809.08" y2="53.13"/>
    <line class="st5" x1="658.9" y1="39.84" x2="809.08" y2="39.84"/>
    <text class="st0" transform="translate(658.83 28.69)"><tspan x="0" y="0">note:</tspan></text>
  </g>
  <g>
    <g>
      <path class="st2" d="M76.99,65.68l8.86-14.43,3.43.19-9,14.45-3.29-.22ZM76.99,65.68h12.29v.33h-12.29v-.33ZM77.6,51.11h11.68v.33h-11.68v-.33Z"/>
      <path class="st2" d="M90.05,58.78c0-4.76,3.6-7.86,7.84-7.86,4.29.03,6.17,2.74,5.34,5.07h-11.02v-.33h6.31c1.3,0,2.13-.39,2.13-1.74,0-1.44-.89-2.66-2.77-2.66-2.93,0-4.57,2.88-4.57,6.95,0,4.68,2.13,7.28,5.45,7.28,2.05,0,4.1-1.27,4.71-4.15l.3.06c-.64,3.07-3.02,4.85-6.56,4.85-3.77,0-7.17-2.71-7.17-7.45Z"/>
      <path class="st2" d="M106.11,51.61l3.13-.64v15.03h-3.13v-14.4ZM116.44,55.6c0-2.66-.66-4.07-2.96-4.07-1.69,0-4.24,1.41-4.24,4.54l-.33.03c0-3.49,2.91-5.18,5.48-5.18,3.07,0,5.18,1.44,5.18,5.57v9.52h-3.13v-10.41Z"/>
      <path class="st2" d="M121.73,62.33c0-4.82,5.51-11.46,11.19-11.46,2.55,0,4.1,1.63,4.1,3.79,0,4.87-5.4,11.6-11.07,11.6-2.74,0-4.21-1.61-4.21-3.93ZM133.85,53.61c0-1.44-.5-2.3-1.77-2.3-3.52,0-7.09,8.08-7.09,11.74,0,1.74.64,2.74,1.91,2.74,3.52,0,6.95-8.36,6.95-12.18Z"/>
      <path class="st2" d="M138.16,60.64l3.16-8.86h-1.83l.11-.33c2.24,0,4.85-1.08,6.12-3.99h.33l-1.33,3.99h3.52l-.11.33h-3.52l-3.18,9.05c-1.3,3.6-.97,4.85.89,5.09l-.14.28c-2.91-.28-5.48-1.41-4.01-5.57Z"/>
      <path class="st2" d="M145.83,63.1c0-5.15,5.76-12.18,10.36-12.18,2.24,0,2.8,2.08,2.1,4.24l-.11-.08,1.22-3.41,3.6-.66-5.73,15.01h-3.41l2.93-7.45.25.14c-2.41,4.65-5.18,7.5-8.06,7.5-1.91,0-3.16-.97-3.16-3.1ZM157.52,56.76c1.25-3.18.75-5.37-1.05-5.37-3.13,0-7.23,7.12-7.23,11.68,0,1.36.44,2.05,1.38,2.05,1.86,0,4.98-3.63,6.89-8.36Z"/>
      <path class="st2" d="M169.09,44.91l3.54-.66-7.5,21.76h-3.32l7.28-21.1Z"/>
    </g>
    <g>
      <path class="st2" d="M53.64,72.74s-.08,0-.11,0c-4.67-.03-9.07-1.87-12.39-5.2-3.32-3.32-5.17-7.72-5.2-12.39-.03-4.67,1.76-9.05,5.05-12.34,3.28-3.28,7.67-5.08,12.34-5.05,4.67.03,9.07,1.87,12.39,5.2,3.32,3.32,5.17,7.72,5.2,12.39.03,4.67-1.76,9.05-5.05,12.34-3.26,3.26-7.59,5.05-12.22,5.05ZM53.21,39.2c-4.25,0-8.23,1.64-11.21,4.63-3.01,3.01-4.65,7.03-4.63,11.32.03,4.29,1.72,8.33,4.78,11.39,3.05,3.05,7.1,4.75,11.39,4.78.03,0,.07,0,.1,0,4.25,0,8.23-1.64,11.21-4.63,3.01-3.01,4.65-7.03,4.63-11.32-.03-4.29-1.72-8.33-4.78-11.39-3.05-3.05-7.1-4.75-11.39-4.78-.03,0-.07,0-.1,0Z"/>
      <path class="st2" d="M51.01,71.64s-.06,0-.09,0c-3.68-.02-7.16-1.48-9.78-4.1-2.62-2.62-4.08-6.09-4.1-9.78-.02-3.69,1.39-7.15,3.98-9.74,5.35-5.35,14.1-5.3,19.52.12h0c2.62,2.62,4.07,6.08,4.1,9.76.03,3.69-1.39,7.16-3.98,9.76-2.57,2.57-6,3.98-9.65,3.98ZM50.68,45.47c-3.14,0-6.27,1.18-8.64,3.56-2.32,2.32-3.59,5.42-3.57,8.72.02,3.31,1.33,6.42,3.68,8.78,2.35,2.35,5.47,3.66,8.78,3.68,3.3.02,6.4-1.25,8.72-3.57,2.32-2.32,3.59-5.43,3.57-8.73-.02-3.3-1.33-6.41-3.68-8.76-2.45-2.45-5.66-3.68-8.86-3.68Z"/>
      <path class="st2" d="M59.98,57.1c-2.14,0-4.29-.82-5.93-2.46-3.26-3.26-3.29-8.53-.07-11.74,1.56-1.56,3.64-2.41,5.86-2.4,2.22.01,4.31.89,5.88,2.47,1.58,1.58,2.45,3.67,2.47,5.88.01,2.22-.84,4.3-2.4,5.86-1.6,1.6-3.7,2.39-5.81,2.39ZM59.78,41.93c-1.82,0-3.52.7-4.8,1.98-2.66,2.66-2.63,7.02.07,9.72,2.7,2.7,7.06,2.73,9.72.07,1.29-1.29,1.99-3.01,1.98-4.84-.01-1.84-.74-3.57-2.05-4.88-1.31-1.31-3.04-2.04-4.88-2.05-.01,0-.03,0-.04,0Z"/>
    </g>
  </g>
</svg>