<svg width="40" height="40" viewBox="0 0 40 40" fill="none" xmlns="http://www.w3.org/2000/svg">
<path d="M20.2207 39.9998C20.1766 39.9998 20.1359 39.9998 20.0918 39.9998C14.7568 39.9658 9.73045 37.8572 5.93524 34.0575C2.14342 30.2578 0.0338423 25.2222 -7.37916e-05 19.8843C-0.0339899 14.5397 2.01454 9.52778 5.76566 5.77226C9.51678 2.01675 14.5262 -0.0375833 19.8612 -0.000231901C25.1962 0.033724 30.2225 2.14238 34.0177 5.94204C37.813 9.7417 39.9191 14.774 39.9531 20.1152C39.987 25.4599 37.9384 30.4718 34.1873 34.2273C30.4667 37.9522 25.5116 39.9998 20.2207 39.9998ZM19.7323 1.63304C14.8789 1.63304 10.3342 3.5108 6.9222 6.92676C3.48311 10.3699 1.60416 14.9675 1.63468 19.8707C1.66521 24.7774 3.6052 29.4055 7.09178 32.8962C10.5817 36.3903 15.2011 38.3291 20.102 38.3597C20.1427 38.3597 20.18 38.3597 20.2207 38.3597C25.0741 38.3597 29.6188 36.4819 33.0308 33.066C36.4699 29.6229 38.3488 25.0252 38.3183 20.122C38.2878 15.2154 36.3478 10.5872 32.8612 7.09654C29.3712 3.60248 24.7519 1.66361 19.851 1.63304C19.8103 1.63304 19.773 1.63304 19.7323 1.63304Z" fill="#FFFFFF"/>
<path d="M17.2091 38.7469C17.1752 38.7469 17.1412 38.7469 17.1073 38.7469C12.8983 38.7197 8.93015 37.0559 5.93537 34.0576C2.94058 31.0593 1.27869 27.0864 1.25156 22.8725C1.22442 18.6552 2.84222 14.6959 5.80309 11.7316C11.9148 5.61274 21.9166 5.67386 28.1029 11.864C31.0943 14.8589 32.7562 18.825 32.7867 23.0321C32.8172 27.2562 31.2028 31.2189 28.2352 34.19C25.298 37.1306 21.3841 38.7469 17.2091 38.7469ZM16.8292 8.81478C13.2409 8.81478 9.66952 10.1696 6.95624 12.8861C4.304 15.5414 2.85918 19.083 2.88292 22.8589C2.90666 26.6416 4.40236 30.207 7.08851 32.8997C9.77806 35.5924 13.3392 37.0864 17.1175 37.1102C20.8856 37.1374 24.4298 35.684 27.0786 33.0321C29.7343 30.3734 31.1791 26.825 31.152 23.0423C31.1248 19.2664 29.6291 15.7078 26.9464 13.0185C24.1483 10.2172 20.4786 8.81478 16.8292 8.81478Z" fill="#FFFFFF"/>
<path d="M27.4552 22.1154C25.0065 22.1154 22.5509 21.1748 20.6754 19.3004C16.9548 15.5755 16.9209 9.54831 20.5974 5.86749C22.3814 4.08141 24.7521 3.11367 27.2958 3.12386C29.8293 3.14084 32.2136 4.14253 34.0146 5.94559C35.8155 7.74865 36.816 10.1391 36.833 12.6722C36.85 15.2121 35.8766 17.5925 34.0926 19.3785C32.2679 21.2054 29.8666 22.1188 27.4552 22.1188V22.1154ZM27.2347 4.75714C25.1591 4.75714 23.2123 5.56189 21.7539 7.02199C18.7116 10.0678 18.7456 15.0559 21.8319 18.1425C24.9149 21.2291 29.9005 21.2665 32.9394 18.2206C34.4114 16.7469 35.2152 14.7809 35.2016 12.6824C35.1881 10.5806 34.3571 8.59754 32.8614 7.10009C31.3657 5.60264 29.385 4.77072 27.2856 4.75714C27.2687 4.75714 27.2517 4.75714 27.2347 4.75714Z" fill="#FFFFFF"/>
</svg>
